<?xml version="1.0" standalone="no"?>
<!DOCTYPE svg PUBLIC "-//W3C//DTD SVG 20010904//EN"
 "http://www.w3.org/TR/2001/REC-SVG-20010904/DTD/svg10.dtd">
<svg version="1.0" xmlns="http://www.w3.org/2000/svg"
 width="30.000000pt" height="29.000000pt" viewBox="0 0 30.000000 29.000000"
 preserveAspectRatio="xMidYMid meet">

<g transform="translate(0.000000,29.000000) scale(0.100000,-0.100000)"
fill="#000000" stroke="none">
<path d="M130 265 c-7 -8 -23 -15 -36 -15 -13 0 -24 -6 -24 -13 0 -8 -11 -24
-25 -37 -24 -23 -26 -30 -23 -105 l3 -80 123 -3 122 -3 0 89 c0 76 -3 91 -20
107 -11 10 -20 24 -20 32 0 7 -9 13 -20 13 -12 0 -31 7 -44 15 -21 14 -24 14
-36 0z m80 -84 c0 -56 -11 -69 -60 -67 -52 2 -60 11 -60 67 l0 49 60 0 60 0 0
-49z m-133 -63 l23 -22 -22 -23 c-31 -33 -38 -29 -38 22 0 25 3 45 7 45 4 0
17 -10 30 -22z m173 -25 l0 -48 -27 28 -28 28 25 19 c14 11 26 20 28 20 1 0 2
-21 2 -47z m-51 -19 c17 -14 31 -30 31 -35 0 -5 -36 -9 -80 -9 -44 0 -80 4
-80 9 0 15 60 61 80 61 10 0 32 -12 49 -26z"/>
<path d="M117 204 c-15 -15 -6 -54 14 -65 18 -9 25 -7 43 10 16 17 18 25 10
39 -11 18 -55 28 -67 16z"/>
</g>
</svg>
