<?xml version="1.0" standalone="no"?>
<!DOCTYPE svg PUBLIC "-//W3C//DTD SVG 20010904//EN"
 "http://www.w3.org/TR/2001/REC-SVG-20010904/DTD/svg10.dtd">
<svg version="1.0" xmlns="http://www.w3.org/2000/svg"
 width="26.000000pt" height="25.000000pt" viewBox="0 0 26.000000 25.000000"
 preserveAspectRatio="xMidYMid meet">

<g transform="translate(0.000000,25.000000) scale(0.100000,-0.100000)"
fill="#000000" stroke="none">
<path d="M50 226 c0 -12 51 -58 57 -53 7 8 -35 57 -49 57 -4 0 -8 -2 -8 -4z"/>
<path d="M25 199 c-13 -19 6 -60 47 -105 60 -65 125 -93 143 -63 9 13 -35 61
-51 55 -13 -5 -74 53 -74 70 0 11 -42 54 -53 54 -3 0 -9 -5 -12 -11z"/>
<path d="M180 102 c0 -13 49 -56 56 -49 4 4 1 14 -6 22 -17 21 -50 38 -50 27z"/>
</g>
</svg>
